<svg id="Layer_1" height="512" viewBox="0 0 512 512" width="512" xmlns="http://www.w3.org/2000/svg" data-name="Layer 1"><path d="m456 59h-400a35.2 35.2 0 0 0 -35 35.182v20.818h470v-20.818a35.2 35.2 0 0 0 -35-35.182zm-398.565 38.672a7.511 7.511 0 1 1 7.509-7.511 7.519 7.519 0 0 1 -7.509 7.511zm31.656 0a7.511 7.511 0 1 1 7.509-7.511 7.519 7.519 0 0 1 -7.509 7.511zm32.657 0a7.511 7.511 0 1 1 7.51-7.511 7.519 7.519 0 0 1 -7.51 7.511z"/><path d="m21 417.818a35.2 35.2 0 0 0 35 35.182h400a35.2 35.2 0 0 0 35-35.182v-292.818h-470zm308.432-205.818h123.289a5 5 0 0 1 0 10h-123.289a5 5 0 0 1 0-10zm0 40h123.289a5 5 0 0 1 0 10h-123.289a5 5 0 0 1 0-10zm0 40h123.289a5 5 0 0 1 0 10h-123.289a5 5 0 0 1 0-10zm0 40h123.289a5 5 0 0 1 0 10h-123.289a5 5 0 0 1 0-10zm-40.715-120h10.318a5 5 0 1 1 0 10h-10.318a5 5 0 0 1 0-10zm0 40h10.318a5 5 0 1 1 0 10h-10.318a5 5 0 0 1 0-10zm0 40h10.318a5 5 0 1 1 0 10h-10.318a5 5 0 0 1 0-10zm0 40h10.318a5 5 0 1 1 0 10h-10.318a5 5 0 0 1 0-10zm-32.909-120h3a5 5 0 0 1 0 10h-3a5 5 0 0 1 0-10zm0 40h3a5 5 0 1 1 0 10h-3a5 5 0 0 1 0-10zm0 40h3a5 5 0 1 1 0 10h-3a5 5 0 0 1 0-10zm0 40h3a5 5 0 1 1 0 10h-3a5 5 0 0 1 0-10zm-83.83-96.186a5 5 0 0 1 7.07-7.071l44.721 44.721a5 5 0 0 1 0 7.072l-44.721 44.721a5 5 0 0 1 -7.07-7.071l41.184-41.186zm-54.578 112.444 35-144.864a5 5 0 0 1 9.72 2.348l-35 144.864a5 5 0 0 1 -9.721-2.348zm-61.656-74.794 44.721-44.721a5 5 0 0 1 7.07 7.071l-41.184 41.186 41.184 41.186a5 5 0 0 1 -7.07 7.071l-44.721-44.721a5 5 0 0 1 0-7.072zm-19.744-127.411a5 5 0 0 1 10 0v4.614a5 5 0 0 1 -10 0zm0 23.264a5 5 0 0 1 10 0v84.572a5 5 0 0 1 -10 0z"/></svg>